{"title":"18+ Fright Fest 2018 Movies 720p HDRip x264 AAC ESubs +Sample ☻r","magnet":"magnet:?xt=urn:btih:bbacba703cde4bb14c49aadffd1924f4a8e80de5&dn=18%2B+Fright+Fest+2018+Movies+720p+HDRip+x264+AAC+ESubs+%2BSample+%E2%98%BBr&tr=udp%3A%2F%2Ftracker.leechers-paradise.org%3A6969&tr=udp%3A%2F%2Fzer0day.ch%3A1337&tr=udp%3A%2F%2Fopen.demonii.com%3A1337&tr=udp%3A%2F%2Ftracker.coppersurfer.tk%3A6969&tr=udp%3A%2F%2Fexodus.desync.com%3A6969","uploader":"basicssom","categoryP":"video","categoryS":"hd___movies","size":"833258889","seeders":"1","leechers":"70","description":"18+ Fright Fest 2018 Movies 720p HDRip x264 AAC ESubs with Sample &#x263B;rDX&#x263B;\r\n\r\nSCREEN SHOTS &amp; POSTER:\r\n   <a href=\"\nhttps://iphonehosting.eu/2018/9/a/savings/index.html\" rel=\"nofollow\" target=\"_NEW\">\nhttps://iphonehosting.eu/2018/9/a/savings/index.html</a> <a href=\"\nhttps://iphonehosting.eu/2018/9/a/savings/1.html\" rel=\"nofollow\" target=\"_NEW\">\nhttps://iphonehosting.eu/2018/9/a/savings/1.html</a> <a href=\"\nhttps://iphonehosting.eu/2018/9/a/savings/2.html\" rel=\"nofollow\" target=\"_NEW\">\nhttps://iphonehosting.eu/2018/9/a/savings/2.html</a>   <a href=\"\nhttps://iphonehosting.eu/2018/9/a/savings/3.html\" rel=\"nofollow\" target=\"_NEW\">\nhttps://iphonehosting.eu/2018/9/a/savings/3.html</a>   <a href=\"\nhttps://iphonehosting.eu/2018/9/a/savings/4.html\" rel=\"nofollow\" target=\"_NEW\">\nhttps://iphonehosting.eu/2018/9/a/savings/4.html</a>   <a href=\"\nhttps://iphonehosting.eu/2018/9/a/savings/5.html\" rel=\"nofollow\" target=\"_NEW\">\nhttps://iphonehosting.eu/2018/9/a/savings/5.html</a>   <a href=\"\nhttps://iphonehosting.eu/2018/9/a/savings/6.html\" rel=\"nofollow\" target=\"_NEW\">\nhttps://iphonehosting.eu/2018/9/a/savings/6.html</a>   <a href=\"\nhttps://iphonehosting.eu/2018/9/a/savings/7.html\" rel=\"nofollow\" target=\"_NEW\">\nhttps://iphonehosting.eu/2018/9/a/savings/7.html</a>   <a href=\"\nhttps://iphonehosting.eu/2018/9/a/savings/8.html\" rel=\"nofollow\" target=\"_NEW\">\nhttps://iphonehosting.eu/2018/9/a/savings/8.html</a>   <a href=\"\nhttps://iphonehosting.eu/2018/9/a/savings/9.html\" rel=\"nofollow\" target=\"_NEW\">\nhttps://iphonehosting.eu/2018/9/a/savings/9.html</a>   <a href=\"\nhttps://iphonehosting.eu/2018/9/a/savings/10.html\" rel=\"nofollow\" target=\"_NEW\">\nhttps://iphonehosting.eu/2018/9/a/savings/10.html</a>\r\n\r\nFile size                                : 786 MiB\r\nDuration                                 : 1 h 30 min\r\nOverall bit rate                         : 1 213 kb/s\r\nMovie name                               : Fright Fest 2018 Movies 720p HDRip x264 AAC ESubs &#x263B;rDX&#x263B;\r\n\r\nVideo\r\nID                                       : 3\r\nFormat                                   : AVC\r\nFormat/Info                              : Advanced Video Codec\r\nFormat profile                           : Main@L3.1\r\nFormat settings, CABAC                   : Yes\r\nFormat settings, ReFrames                : 2 frames\r\nFormat settings, GOP                     : M=1, N=25\r\nCodec ID                                 : V_MPEG4/ISO/AVC\r\nDuration                                 : 1 h 30 min\r\nBit rate mode                            : Constant\r\nBit rate                                 : 1 150 kb/s\r\nWidth                                    : 1 280 pixels\r\nHeight                                   : 544 pixels\r\nDisplay aspect ratio                     : 2.35:1\r\nFrame rate mode                          : Constant\r\nFrame rate                               : 29.970 (30000/1001) FPS\r\nColor space                              : YUV\r\nChroma subsampling                       : 4:2:0\r\nBit depth                                : 8 bits\r\nScan type                                : Progressive\r\nBits/(Pixel*Frame)                       : 0.055\r\nStream size                              : 729 MiB (93%)\r\nTitle                                    : &#x263B;rDX&#x263B;\r\nDefault                                  : Yes\r\nForced                                   : No\r\n\r\nAudio\r\nID                                       : 1\r\nFormat                                   : MPEG Audio\r\nFormat version                           : Version 1\r\nFormat profile                           : Layer 3\r\nMode                                     : Joint stereo\r\nMode extension                           : MS Stereo\r\nCodec ID                                 : A_MPEG/L3\r\nCodec ID/Hint                            : MP3\r\nDuration                                 : 1 h 30 min\r\nBit rate mode                            : Constant\r\nBit rate                                 : 64.0 kb/s\r\nChannel(s)                               : 2 channels\r\nSampling rate                            : 44.1 kHz\r\nCompression mode                         : Lossy\r\nStream size                              : 41.5 MiB (5%)\r\nTitle                                    : &#x263B;rDX&#x263B;\r\nDefault                                  : Yes\r\nForced                                   : No\r\n <a href=\"\nhttps://www.imdb.com/title/tt5829104/\" rel=\"nofollow\" target=\"_NEW\">\nhttps://www.imdb.com/title/tt5829104/</a>","last_updated":"2018-09-26T12:09:37.807Z","parsed":{"xt":"urn:btih:bbacba703cde4bb14c49aadffd1924f4a8e80de5","dn":"18  Fright Fest 2018 Movies 720p HDRip x264 AAC ESubs  Sample ☻r","tr":["udp://exodus.desync.com:6969","udp://open.demonii.com:1337","udp://tracker.coppersurfer.tk:6969","udp://tracker.leechers-paradise.org:6969","udp://zer0day.ch:1337"],"infoHash":"bbacba703cde4bb14c49aadffd1924f4a8e80de5","infoHashBuffer":{"type":"Buffer","data":[187,172,186,112,60,222,75,177,76,73,170,223,253,25,36,244,168,232,13,229]},"name":"18  Fright Fest 2018 Movies 720p HDRip x264 AAC ESubs  Sample ☻r","announce":["udp://exodus.desync.com:6969","udp://open.demonii.com:1337","udp://tracker.coppersurfer.tk:6969","udp://tracker.leechers-paradise.org:6969","udp://zer0day.ch:1337"],"urlList":[]}}